<?xml version="1.0" encoding="UTF-8"?>
<svg width="195px" height="43px" viewBox="0 0 195 43" version="1.1" xmlns="http://www.w3.org/2000/svg" xmlns:xlink="http://www.w3.org/1999/xlink">
    <!-- Generator: Sketch 52.6 (67491) - http://www.bohemiancoding.com/sketch -->
    <title>logo-bd</title>
    <desc>Created with Sketch.</desc>
    <g id="Page-1" stroke="none" stroke-width="1" fill="none" fill-rule="evenodd">
        <g id="logo-bd" fill="#000000">
            <g>
                <path d="M14.8,0.9 C11.2,5.6 0.4,20.3 0.4,27.4 C0.4,35.9 7.3,42.8 15.9,42.8 C24.5,42.8 31.4,35.9 31.4,27.4 C31.4,20.3 20.7,5.6 17.1,0.9 C16.5,0.1 15.3,0.1 14.8,0.9 Z" id="Path"></path>
                <path d="M165.9,30.2 C166.5,30.2 167,30.4 167.3,30.8 C167.6,31.2 167.8,31.7 168,32.3 C168,32.5 168.1,32.6 168.1,32.6 C168.1,32.6 168.2,32.7 168.4,32.7 L171.9,32.5 C172,32.5 172.1,32.5 172.1,32.4 C172.1,32.4 172.2,32.3 172.2,32.2 C172.2,32.1 172.2,32 172.1,31.8 C171.9,30.9 171.5,30.1 171,29.4 C170.4,28.7 169.7,28.2 168.8,27.8 C167.9,27.4 166.9,27.2 165.8,27.2 C164.4,27.2 163.1,27.5 162,28.1 C160.9,28.7 160.1,29.6 159.5,30.7 C158.9,31.8 158.6,33.1 158.6,34.7 C158.6,36.2 158.9,37.6 159.5,38.8 C160.1,40 160.9,40.9 162,41.6 C163.1,42.3 164.3,42.6 165.8,42.6 C167.3,42.6 168.6,42.3 169.5,41.6 C170.5,41 171.2,40.2 171.7,39.4 C172.2,38.6 172.4,38 172.4,37.7 C172.4,37.5 172.3,37.3 172.1,37.2 L169.6,36.7 C169.5,36.7 169.5,36.7 169.4,36.7 C169.2,36.7 169.1,36.8 169.1,36.9 C168.8,37.7 168.3,38.3 167.8,38.7 C167.3,39.1 166.7,39.2 166,39.2 C165.2,39.2 164.5,38.9 164.1,38.2 C163.7,37.5 163.5,36.4 163.5,34.7 C163.5,33.1 163.7,32 164.1,31.3 C164.5,30.6 165.1,30.2 165.9,30.2 Z" id="Path"></path>
                <path d="M141.2,30 C141.9,30 142.5,30.2 142.9,30.6 C143.3,31 143.6,31.5 143.7,32.2 C143.7,32.4 143.8,32.5 143.8,32.5 C143.8,32.6 143.9,32.6 144.1,32.6 L147.7,32.1 C147.8,32.1 147.9,32.1 148,32 C148.1,32 148.1,31.9 148.1,31.7 C148.1,31.6 148.1,31.5 148,31.3 C147.8,30.5 147.4,29.8 146.8,29.1 C146.2,28.4 145.4,27.8 144.5,27.4 C143.6,27 142.5,26.7 141.3,26.7 C139.8,26.7 138.5,27 137.3,27.7 C136.1,28.4 135.2,29.3 134.6,30.6 C134,31.8 133.6,33.2 133.6,34.8 C133.6,36.4 133.9,37.7 134.5,39 C135.1,40.2 136,41.1 137.1,41.8 C138.2,42.5 139.5,42.8 141,42.8 C141.8,42.8 142.4,42.7 143,42.5 C143.5,42.3 144,42.1 144.3,41.9 C144.6,41.7 145,41.4 145.3,41 C145.4,40.9 145.4,40.9 145.4,40.9 C145.4,40.9 145.5,40.9 145.5,41 L146.3,42.2 C146.5,42.5 146.7,42.6 147,42.6 L147.8,42.6 C147.9,42.6 148,42.6 148.1,42.5 C148.2,42.4 148.2,42.3 148.2,42.2 L148.2,35.3 C148.2,35.1 148.1,34.9 148,34.8 C147.9,34.7 147.7,34.6 147.4,34.6 L141.5,34.6 C141.2,34.6 141.1,34.7 141.1,35 L141.1,37 C141.1,37.2 141.1,37.3 141.2,37.4 C141.3,37.5 141.4,37.5 141.5,37.5 L143.5,37.5 C143.7,37.5 143.7,37.6 143.7,37.7 L143.7,37.9 L143.6,38.1 C143.2,39.1 142.5,39.6 141.3,39.6 C140.4,39.6 139.8,39.2 139.3,38.5 C138.8,37.8 138.6,36.5 138.6,34.7 C138.6,33 138.8,31.8 139.2,31.1 C139.7,30.4 140.3,30 141.2,30 Z" id="Path"></path>
                <path d="M122.8,27 C122.7,27 122.6,26.9 122.4,26.9 L119,26.9 C118.7,26.9 118.5,27.1 118.5,27.4 L118.5,42.2 C118.5,42.5 118.7,42.6 119,42.6 L121.9,42.6 C122.1,42.6 122.2,42.6 122.3,42.5 C122.4,42.4 122.4,42.3 122.4,42.1 L122.4,34.4 C122.4,34.3 122.4,34.3 122.5,34.3 C122.5,34.3 122.6,34.3 122.6,34.4 L128.4,42.3 C128.5,42.4 128.6,42.5 128.7,42.6 C128.8,42.6 128.9,42.7 129,42.7 L131.9,42.7 C132,42.7 132.2,42.7 132.2,42.6 C132.3,42.5 132.3,42.4 132.3,42.3 L132.3,27.3 C132.3,27.1 132.2,26.9 132,26.9 L129,26.9 C128.7,26.9 128.5,27 128.5,27.3 L128.5,34.2 C128.5,34.4 128.5,34.5 128.4,34.5 C128.3,34.5 128.3,34.4 128.2,34.3 L123.1,27.2 C123,27.2 122.9,27.1 122.8,27 Z" id="Path"></path>
                <path d="M45.9,42.6 L52.6,42.6 C54.9,42.6 56.6,42.3 57.7,41.6 C58.8,40.9 59.4,39.8 59.4,38.4 C59.4,37.5 59.2,36.7 58.7,36.2 C58.2,35.6 57.4,35.1 56.3,34.7 C56.3,34.7 56.3,34.7 56.3,34.6 C56.3,34.6 56.3,34.5 56.3,34.5 C57.3,34 58,33.5 58.5,33 C58.9,32.5 59.1,31.9 59.1,31.1 C59.1,29.7 58.5,28.7 57.4,28 C56.3,27.3 54.6,27 52.4,27 L46,27 C45.8,27 45.7,27.1 45.6,27.2 C45.5,27.3 45.5,27.4 45.5,27.6 L45.5,42.3 C45.5,42.4 45.5,42.5 45.6,42.6 C45.7,42.6 45.8,42.6 45.9,42.6 Z M50.3,30.5 C50.3,30.3 50.3,30.2 50.4,30.2 C50.5,30.1 50.6,30.1 50.8,30.1 L52.5,30.1 C53,30.1 53.4,30.2 53.8,30.5 C54.1,30.8 54.3,31.1 54.3,31.6 C54.3,32 54.2,32.4 53.9,32.6 C53.6,32.9 53.2,33 52.7,33 L50.7,33 C50.6,33 50.5,33 50.4,32.9 C50.3,32.8 50.3,32.7 50.3,32.5 L50.3,30.5 Z M50.3,36.8 C50.3,36.6 50.3,36.5 50.4,36.5 C50.5,36.4 50.6,36.4 50.8,36.4 L52.7,36.4 C53.2,36.4 53.6,36.5 54,36.8 C54.3,37.1 54.5,37.4 54.5,37.9 C54.5,38.3 54.3,38.7 54,39 C53.7,39.3 53.2,39.5 52.6,39.5 L50.7,39.5 C50.6,39.5 50.5,39.5 50.4,39.4 C50.3,39.3 50.3,39.2 50.3,39 L50.3,36.8 Z" id="Shape" fill-rule="nonzero"></path>
                <path d="M115.9,42.6 C116.1,42.6 116.3,42.6 116.4,42.5 C116.5,42.4 116.6,42.2 116.6,42 L116.6,27.4 C116.6,27.1 116.5,27 116.2,27 L112.2,27 C112.1,27 112,27 111.9,27.1 C111.8,27.2 111.8,27.3 111.8,27.5 L111.8,42.2 C111.8,42.4 111.8,42.5 111.9,42.6 C112,42.7 112.1,42.7 112.3,42.7 L115.9,42.7 L115.9,42.6 Z" id="Path"></path>
                <path d="M96,35.3 C96,35.4 95.9,35.5 95.9,35.5 C95.8,35.5 95.8,35.4 95.8,35.2 L93.6,27.4 C93.6,27.2 93.5,27.1 93.4,27.1 C93.2,27 93,27 92.8,27 L89.3,27 C89.1,27 88.9,27.1 88.8,27.2 C88.7,27.3 88.6,27.4 88.6,27.6 C88.6,27.7 88.6,27.7 88.6,27.9 L93,42.1 C93.1,42.3 93.2,42.4 93.3,42.5 C93.4,42.6 93.6,42.6 93.8,42.6 L96.8,42.6 C97,42.6 97.2,42.6 97.3,42.5 C97.4,42.4 97.5,42.3 97.6,42.1 L99.8,34.7 C99.9,34.5 99.9,34.4 100,34.4 C100.1,34.4 100.1,34.5 100.1,34.7 L102.3,42.1 C102.4,42.5 102.7,42.6 103.1,42.6 L106,42.6 C106.2,42.6 106.4,42.6 106.5,42.5 C106.6,42.4 106.7,42.3 106.8,42.1 L111.1,27.8 C111.1,27.7 111.1,27.6 111.1,27.5 C111.1,27.3 111,27.2 110.9,27.1 C110.8,27 110.6,26.9 110.4,26.9 L107.9,26.9 C107.5,26.9 107.3,27 107.2,27.3 L105,35.4 C105,35.5 105,35.5 104.9,35.5 C104.8,35.5 104.8,35.4 104.8,35.4 L102.5,27.4 C102.5,27.2 102.4,27.1 102.3,27.1 C102.2,27 102,27 101.8,27 L98.8,27 C98.4,27 98.2,27.1 98.1,27.4 L96,35.3 Z" id="Path"></path>
                <path d="M76.3,42.6 L87.6,42.6 C87.8,42.6 87.9,42.6 88,42.5 C88.1,42.4 88.1,42.3 88.1,42.2 L88.1,39.6 C88.1,39.3 87.9,39.2 87.6,39.2 L80.7,39.2 C80.6,39.2 80.5,39.2 80.5,39.1 C80.5,39.1 80.4,39 80.4,38.9 L80.4,36.8 C80.4,36.7 80.4,36.6 80.5,36.6 C80.6,36.5 80.6,36.5 80.7,36.5 L84.6,36.5 C84.9,36.5 85,36.4 85,36.1 L85,33.5 C85,33.2 84.9,33.1 84.6,33.1 L80.8,33.1 C80.7,33.1 80.6,33.1 80.5,33 C80.4,32.9 80.4,32.8 80.4,32.7 L80.4,30.9 C80.4,30.6 80.6,30.5 80.9,30.5 L87.2,30.5 C87.6,30.5 87.7,30.3 87.7,29.9 L87.7,27.4 C87.7,27.1 87.6,27 87.3,27 L76.1,27 C75.8,27 75.7,27.2 75.7,27.5 L75.7,42.2 C75.7,42.4 75.7,42.5 75.8,42.6 C75.9,42.6 76.1,42.6 76.3,42.6 Z" id="Path"></path>
                <path d="M189.5,38.3 C189.4,38.3 189.3,38.3 189.2,38.4 C189.1,38.5 189.1,38.6 189.1,38.7 L189.1,41.8 C189.1,42 189.1,42.1 189.2,42.2 C189.3,42.3 189.4,42.3 189.6,42.3 L192.6,42.3 C192.8,42.3 193,42.3 193.1,42.2 C193.2,42.1 193.3,42 193.3,41.7 L193.3,38.6 C193.3,38.3 193.2,38.2 192.9,38.2 L189.5,38.2 L189.5,38.3 Z" id="Path"></path>
                <path d="M176.5,41.6 C177.6,42.2 178.9,42.5 180.3,42.5 C181.8,42.5 183,42.2 184.1,41.6 C185.2,41 186,40.1 186.6,38.9 C187.2,37.7 187.5,36.4 187.5,34.9 C187.5,33.4 187.2,32 186.6,30.8 C186,29.6 185.2,28.7 184.1,28.1 C183,27.5 181.7,27.1 180.3,27.1 C178.8,27.1 177.6,27.4 176.5,28.1 C175.4,28.7 174.6,29.6 174,30.8 C173.4,32 173.1,33.3 173.1,34.9 C173.1,36.4 173.4,37.8 174,38.9 C174.5,40.1 175.4,41 176.5,41.6 Z M178.4,31.3 C178.8,30.6 179.4,30.2 180.3,30.2 C181.2,30.2 181.8,30.6 182.2,31.3 C182.6,32 182.8,33.2 182.8,34.9 C182.8,36 182.7,36.9 182.6,37.5 C182.4,38.1 182.2,38.6 181.8,38.9 C181.4,39.2 181,39.3 180.4,39.3 C179.8,39.3 179.3,39.2 179,38.9 C178.6,38.6 178.4,38.1 178.2,37.5 C178,36.9 178,36 178,34.9 C177.8,33.3 178,32.1 178.4,31.3 Z" id="Shape" fill-rule="nonzero"></path>
                <path d="M71.7,35.6 C72.5,35.3 73.2,34.8 73.7,34 C74.2,33.2 74.5,32.4 74.5,31.4 C74.5,30 73.9,28.9 72.8,28.1 C71.7,27.3 70.1,26.9 68,26.9 L61,26.9 C60.7,26.9 60.6,27.1 60.6,27.4 L60.6,42.1 C60.6,42.3 60.6,42.4 60.7,42.5 C60.8,42.6 60.9,42.6 61.1,42.6 L64.6,42.6 C64.8,42.6 65,42.6 65.1,42.5 C65.2,42.4 65.3,42.2 65.3,42 L65.3,36.6 C65.3,36.6 65.3,36.5 65.4,36.5 C65.4,36.4 65.5,36.4 65.6,36.4 L66.6,36.4 C66.8,36.4 66.9,36.4 67,36.5 C67.1,36.6 67.2,36.6 67.2,36.8 L69.2,42.2 C69.3,42.5 69.5,42.6 69.8,42.6 L73.9,42.6 C74,42.6 74.1,42.6 74.2,42.5 C74.3,42.4 74.3,42.3 74.3,42.2 C74.3,42.1 74.3,42 74.3,42 L71.6,36 C71.6,35.9 71.6,35.9 71.6,35.8 C71.6,35.7 71.6,35.7 71.7,35.6 Z M69,32.8 C68.7,33.1 68.3,33.2 67.8,33.2 L65.7,33.2 C65.6,33.2 65.5,33.2 65.4,33.1 C65.4,33 65.3,32.9 65.3,32.8 L65.3,30.5 C65.3,30.3 65.3,30.2 65.4,30.2 C65.5,30.1 65.6,30.1 65.8,30.1 L67.7,30.1 C68.2,30.1 68.6,30.2 69,30.5 C69.3,30.8 69.5,31.2 69.5,31.7 C69.5,32.2 69.3,32.6 69,32.8 Z" id="Shape" fill-rule="nonzero"></path>
                <path d="M82.6,21.6 C84.2,22.6 86,23 88.1,23 C89.2,23 90.1,22.9 90.9,22.6 C91.7,22.3 92.3,22 92.8,21.7 C93.3,21.4 93.8,20.9 94.3,20.4 C94.4,20.3 94.5,20.3 94.5,20.3 C94.6,20.3 94.6,20.3 94.6,20.4 L95.8,22.1 C96.1,22.5 96.4,22.7 96.8,22.7 L97.9,22.7 C98,22.7 98.2,22.7 98.3,22.6 C98.4,22.5 98.4,22.4 98.4,22.2 L98.4,12.4 C98.4,12.1 98.3,11.9 98.1,11.7 C97.9,11.5 97.6,11.4 97.3,11.4 L89,11.3 C88.6,11.3 88.4,11.5 88.4,11.8 L88.4,14.7 C88.4,14.9 88.4,15.1 88.5,15.2 C88.6,15.3 88.7,15.3 89,15.3 L91.8,15.3 C92,15.3 92.1,15.4 92.1,15.6 L91.9,16 L91.8,16.3 C91.3,17.7 90.2,18.4 88.6,18.4 C87.4,18.4 86.4,17.9 85.8,16.9 C85.1,15.9 84.8,14.1 84.8,11.6 C84.8,9.2 85.1,7.5 85.7,6.5 C86.3,5.5 87.2,5 88.4,5 C89.4,5 90.2,5.3 90.8,5.9 C91.4,6.5 91.8,7.2 91.9,8.2 C92,8.4 92,8.6 92.1,8.7 C92.2,8.8 92.3,8.8 92.5,8.8 L97.6,8 C97.8,8 97.9,7.9 98,7.9 C98,7.7 98,7.6 98,7.4 C98,7.3 98,7.1 97.9,6.8 C97.6,5.7 97.1,4.6 96.3,3.6 C95.5,2.6 94.4,1.8 93,1.2 C91.7,0.6 90.1,0.3 88.4,0.3 C86.3,0.3 84.4,0.8 82.8,1.7 C81.2,2.7 79.9,4 79,5.7 C78.1,7.4 77.6,9.4 77.6,11.7 C77.6,13.9 78,15.9 78.9,17.6 C79.8,19.3 81,20.7 82.6,21.6 Z" id="Path"></path>
                <path d="M107.8,22.7 L115.6,22.7 C118.1,22.7 120.3,22.2 122.1,21.3 C123.9,20.4 125.2,19 126.1,17.4 C127,15.7 127.4,13.8 127.4,11.6 C127.4,8.3 126.4,5.7 124.4,3.8 C122.4,1.9 119.5,0.8 115.6,0.7 C115,0.7 113.6,0.7 111.2,0.7 L107.7,0.7 C107.4,0.7 107.2,0.8 107.1,0.9 C107,0.9 107,1.1 107,1.4 L107,21.9 C107,22.2 107.1,22.4 107.2,22.6 C107.3,22.8 107.5,22.7 107.8,22.7 Z M113.7,5.7 C113.7,5.5 113.7,5.4 113.8,5.4 C113.8,5.3 113.9,5.3 114,5.3 L115.8,5.4 C117.3,5.5 118.4,6.1 119.2,7.1 C120,8.1 120.4,9.6 120.4,11.5 C120.4,13.8 119.9,15.5 118.9,16.5 C117.9,17.5 116.4,18 114.4,18 L114.2,18 C114,18 113.9,18 113.9,17.9 C113.8,17.8 113.8,17.7 113.8,17.5 L113.8,5.7 L113.7,5.7 Z" id="Shape" fill-rule="nonzero"></path>
                <path d="M176.2,22.7 L181.2,22.7 C181.5,22.7 181.8,22.6 181.9,22.5 C182.1,22.4 182.1,22.1 182.1,21.8 L182.1,15.1 C182.1,14.9 182.2,14.8 182.5,14.8 L186.6,14.8 C188.2,14.8 189.6,14.5 190.9,14 C192.2,13.5 193.1,12.6 193.8,11.6 C194.5,10.6 194.8,9.3 194.8,7.9 C194.8,6.3 194.4,5 193.6,4 C192.8,3 191.7,2.1 190.4,1.6 C189,1.1 187.5,0.8 185.9,0.8 L176,0.8 C175.6,0.8 175.4,1 175.4,1.5 L175.4,22 C175.4,22.3 175.5,22.4 175.6,22.6 C175.7,22.8 175.9,22.7 176.2,22.7 Z M182.2,6 C182.2,5.8 182.2,5.6 182.3,5.5 C182.4,5.4 182.6,5.4 182.8,5.4 L185.4,5.4 C186.1,5.4 186.7,5.6 187.2,6 C187.7,6.4 187.9,7 187.9,7.7 C187.9,8.4 187.7,8.9 187.3,9.4 C186.9,9.8 186.3,10.1 185.6,10.1 L182.7,10.1 C182.5,10.1 182.4,10.1 182.3,10 C182.2,9.9 182.2,9.7 182.2,9.5 L182.2,6 Z" id="Shape" fill-rule="nonzero"></path>
                <path d="M156.4,21.7 C158,22.6 159.9,23.1 162.1,23.1 C164.2,23.1 166.1,22.6 167.7,21.7 C169.3,20.8 170.6,19.5 171.4,17.7 C172.3,16 172.7,14 172.7,11.7 C172.7,9.4 172.3,7.4 171.4,5.7 C170.5,4 169.3,2.6 167.7,1.7 C166.1,0.8 164.2,0.3 162.1,0.3 C160,0.3 158.1,0.8 156.4,1.7 C154.8,2.6 153.5,4 152.6,5.7 C151.7,7.4 151.3,9.4 151.3,11.7 C151.3,14 151.7,16 152.6,17.7 C153.6,19.4 154.8,20.7 156.4,21.7 Z M159.3,6.5 C159.9,5.4 160.8,4.9 162.1,4.9 C163.4,4.9 164.3,5.4 164.8,6.5 C165.4,7.6 165.6,9.3 165.6,11.8 C165.6,13.4 165.5,14.7 165.2,15.6 C165,16.6 164.6,17.2 164.1,17.7 C163.6,18.1 162.9,18.3 162,18.3 C161.1,18.3 160.4,18.1 159.9,17.7 C159.4,17.3 159,16.6 158.8,15.6 C158.6,14.6 158.4,13.4 158.4,11.8 C158.5,9.4 158.7,7.6 159.3,6.5 Z" id="Shape" fill-rule="nonzero"></path>
                <path d="M130.9,22.7 L135.9,22.7 C136.2,22.7 136.5,22.6 136.6,22.5 C136.8,22.4 136.8,22.1 136.8,21.8 L136.8,14.2 C136.8,14.1 136.8,14.1 136.9,14 C137,13.9 137,13.9 137.2,13.9 L138.6,13.9 C138.9,13.9 139.1,13.9 139.2,14 C139.3,14.1 139.4,14.2 139.5,14.4 L142.3,22.1 C142.4,22.5 142.7,22.7 143.1,22.7 L148.9,22.7 C149.1,22.7 149.2,22.6 149.3,22.5 C149.4,22.4 149.5,22.2 149.5,22.1 C149.5,22 149.5,21.9 149.4,21.8 L145.6,13.5 C145.6,13.4 145.5,13.3 145.5,13.2 C145.5,13.1 145.6,13 145.7,12.9 C146.9,12.5 147.8,11.7 148.5,10.6 C149.2,9.5 149.6,8.3 149.6,6.9 C149.6,4.9 148.8,3.3 147.2,2.2 C145.6,1.1 143.4,0.5 140.5,0.5 L130.5,0.5 C130.1,0.5 129.9,0.7 129.9,1.2 L129.9,22 C129.9,22.3 130,22.4 130.1,22.6 C130.4,22.7 130.6,22.7 130.9,22.7 Z M136.9,5.6 C136.9,5.4 136.9,5.2 137,5.1 C137.1,5 137.3,5 137.5,5 L140.1,5 C140.8,5 141.4,5.2 141.9,5.6 C142.4,6 142.6,6.6 142.6,7.3 C142.6,8 142.4,8.5 142,8.9 C141.6,9.3 141,9.5 140.3,9.5 L137.3,9.5 C137.1,9.5 137,9.5 136.9,9.4 C136.8,9.3 136.8,9.1 136.8,8.9 L136.8,5.6 L136.9,5.6 Z" id="Shape" fill-rule="nonzero"></path>
                <path d="M74.4,0.6 L68.7,0.6 C68.5,0.6 68.4,0.7 68.3,0.8 C68.2,0.9 68.2,1.1 68.2,1.3 L68.2,22 C68.2,22.3 68.3,22.4 68.4,22.6 C68.5,22.7 68.7,22.8 69,22.8 L74,22.8 C74.3,22.8 74.6,22.7 74.7,22.6 C74.9,22.5 74.9,22.2 74.9,21.9 L74.9,1.2 C75,0.8 74.8,0.6 74.4,0.6 Z" id="Path"></path>
                <path d="M46.6,22.7 L56,22.7 C59.2,22.7 61.6,22.2 63.2,21.2 C64.8,20.2 65.5,18.7 65.5,16.7 C65.5,15.4 65.2,14.4 64.5,13.5 C63.8,12.6 62.7,12 61.1,11.4 C61.1,11.4 61,11.3 61,11.3 C61,11.3 61,11.2 61.1,11.2 C62.6,10.5 63.6,9.8 64.1,9.1 C64.7,8.4 65,7.5 65,6.4 C65,4.5 64.2,3 62.6,2 C61,1 58.6,0.5 55.5,0.5 L46.6,0.5 C46.4,0.5 46.2,0.6 46.1,0.7 C46,1 45.9,1.2 45.9,1.4 L45.9,22.1 C45.9,22.3 46,22.4 46.1,22.6 C46.2,22.7 46.4,22.7 46.6,22.7 Z M52.7,5.7 C52.7,5.5 52.7,5.3 52.8,5.2 C52.9,5.1 53.1,5.1 53.3,5.1 L55.7,5.1 C56.4,5.1 57,5.3 57.5,5.7 C58,6.1 58.2,6.6 58.2,7.3 C58.2,7.9 58,8.4 57.6,8.8 C57.2,9.2 56.6,9.4 55.9,9.4 L53.1,9.4 C52.9,9.4 52.8,9.4 52.7,9.3 C52.6,9.2 52.6,9 52.6,8.8 L52.6,5.7 L52.7,5.7 Z M52.7,14.5 C52.7,14.3 52.7,14.1 52.8,14 C52.9,13.9 53.1,13.9 53.3,13.9 L56,13.9 C56.7,13.9 57.3,14.1 57.8,14.5 C58.3,14.9 58.5,15.4 58.5,16 C58.5,16.6 58.3,17.2 57.8,17.6 C57.3,18.1 56.7,18.3 55.9,18.3 L53.2,18.3 C53,18.3 52.9,18.3 52.8,18.2 C52.7,18.1 52.7,17.9 52.7,17.7 L52.7,14.5 Z" id="Shape" fill-rule="nonzero"></path>
                <path d="M153.5,32.2 C153.9,32 154.2,31.6 154.5,31.2 C154.7,30.8 154.9,30.3 154.9,29.9 C154.9,29.5 154.8,29 154.5,28.6 C154.3,28.2 153.9,27.9 153.5,27.6 C153.1,27.4 152.6,27.2 152.2,27.2 C151.7,27.2 151.3,27.3 150.9,27.6 C150.5,27.8 150.2,28.2 149.9,28.6 C149.7,29 149.5,29.5 149.5,29.9 C149.5,30.3 149.6,30.8 149.9,31.2 C150.1,31.6 150.5,31.9 150.9,32.2 C151.3,32.4 151.8,32.6 152.2,32.6 C152.6,32.6 153.1,32.4 153.5,32.2 Z M150.7,31.3 C150.3,30.9 150.2,30.5 150.2,29.9 C150.2,29.3 150.4,28.8 150.7,28.5 C151,28.1 151.5,28 152.1,28 C152.7,28 153.1,28.2 153.5,28.5 C153.9,28.9 154,29.3 154,29.9 C154,30.5 153.8,31 153.5,31.3 C153.2,31.7 152.7,31.8 152.1,31.8 C151.6,31.9 151.1,31.7 150.7,31.3 Z" id="Shape" fill-rule="nonzero"></path>
                <path d="M152.6,31.2 C152.6,31.2 152.6,31.2 152.6,31.2 L153.3,31.3 C153.3,31.3 153.3,31.3 153.3,31.3 C153.3,31.3 153.3,31.3 153.3,31.2 L152.8,30.1 C152.8,30.1 152.8,30.1 152.8,30 C152.9,29.9 153.1,29.9 153.2,29.7 C153.3,29.6 153.3,29.4 153.3,29.3 C153.3,29.1 153.2,28.9 153,28.8 C152.8,28.7 152.6,28.6 152.3,28.6 L151.1,28.6 C151.1,28.6 151,28.6 151,28.7 L151,31.2 C151,31.2 151,31.3 151.1,31.3 L151.6,31.3 C151.7,31.3 151.7,31.3 151.7,31.2 L151.7,30.2 C151.7,30.2 151.7,30.2 151.7,30.2 L152,30.2 C152,30.2 152.1,30.2 152.1,30.2 L152.6,31.2 Z M151.8,29.6 C151.7,29.6 151.7,29.6 151.8,29.6 L151.8,29.1 C151.8,29.1 151.8,29.1 151.8,29.1 C151.8,29.1 151.8,29.1 151.8,29.1 C151.8,29.1 151.8,29.1 151.8,29.1 L152.2,29.1 C152.3,29.1 152.4,29.1 152.5,29.2 C152.6,29.3 152.6,29.3 152.6,29.4 C152.6,29.5 152.6,29.6 152.5,29.6 C152.4,29.6 152.3,29.7 152.2,29.7 L151.8,29.7 L151.8,29.6 Z" id="Shape" fill-rule="nonzero"></path>
            </g>
        </g>
    </g>
</svg>